<svg xmlns="http://www.w3.org/2000/svg" xmlns:xlink="http://www.w3.org/1999/xlink" contentStyleType="text/css" data-diagram-type="SEQUENCE" height="805px" preserveAspectRatio="none" style="width:622px;height:805px;background:#FFFFFF;" version="1.1" viewBox="0 0 622 805" width="622px" zoomAndPan="magnify"><defs/><g><rect fill="none" height="202.7461" style="stroke:#000000;stroke-width:1.5;" width="595.3491" x="10" y="516.8223"/><g><title>Client1</title><rect fill="#000000" fill-opacity="0.00000" height="729.2383" width="8" x="44.7896" y="38.6211"/><line style="stroke:#181818;stroke-width:0.5;stroke-dasharray:5,5;" x1="48" x2="48" y1="38.6211" y2="767.8594"/></g><g><title>Server</title><rect fill="#000000" fill-opacity="0.00000" height="729.2383" width="8" x="214.3994" y="38.6211"/><line style="stroke:#181818;stroke-width:0.5;stroke-dasharray:5,5;" x1="217.7822" x2="217.7822" y1="38.6211" y2="767.8594"/></g><g><title>Client2</title><rect fill="#000000" fill-opacity="0.00000" height="729.2383" width="8" x="389.0557" y="38.6211"/><line style="stroke:#181818;stroke-width:0.5;stroke-dasharray:5,5;" x1="392.2661" x2="392.2661" y1="38.6211" y2="767.8594"/></g><g class="participant participant-head" data-participant="Client1"><rect fill="#E2E2F0" height="32.6211" rx="2.5" ry="2.5" style="stroke:#181818;stroke-width:0.5;" width="57.5791" x="20" y="5"/><text fill="#000000" font-family="sans-serif" font-size="14" lengthAdjust="spacing" textLength="43.5791" x="27" y="27.1074">Client1</text></g><g class="participant participant-tail" data-participant="Client1"><rect fill="#E2E2F0" height="32.6211" rx="2.5" ry="2.5" style="stroke:#181818;stroke-width:0.5;" width="57.5791" x="20" y="766.8594"/><text fill="#000000" font-family="sans-serif" font-size="14" lengthAdjust="spacing" textLength="43.5791" x="27" y="788.9668">Client1</text></g><g class="participant participant-head" data-participant="Server"><rect fill="#E2E2F0" height="32.6211" rx="2.5" ry="2.5" style="stroke:#181818;stroke-width:0.5;" width="55.2344" x="190.7822" y="5"/><text fill="#000000" font-family="sans-serif" font-size="14" lengthAdjust="spacing" textLength="41.2344" x="197.7822" y="27.1074">Server</text></g><g class="participant participant-tail" data-participant="Server"><rect fill="#E2E2F0" height="32.6211" rx="2.5" ry="2.5" style="stroke:#181818;stroke-width:0.5;" width="55.2344" x="190.7822" y="766.8594"/><text fill="#000000" font-family="sans-serif" font-size="14" lengthAdjust="spacing" textLength="41.2344" x="197.7822" y="788.9668">Server</text></g><g class="participant participant-head" data-participant="Client2"><rect fill="#E2E2F0" height="32.6211" rx="2.5" ry="2.5" style="stroke:#181818;stroke-width:0.5;" width="57.5791" x="364.2661" y="5"/><text fill="#000000" font-family="sans-serif" font-size="14" lengthAdjust="spacing" textLength="43.5791" x="371.2661" y="27.1074">Client2</text></g><g class="participant participant-tail" data-participant="Client2"><rect fill="#E2E2F0" height="32.6211" rx="2.5" ry="2.5" style="stroke:#181818;stroke-width:0.5;" width="57.5791" x="364.2661" y="766.8594"/><text fill="#000000" font-family="sans-serif" font-size="14" lengthAdjust="spacing" textLength="43.5791" x="371.2661" y="788.9668">Client2</text></g><rect fill="#EEEEEE" height="3" style="stroke:#EEEEEE;stroke-width:1;" width="615.3491" x="0" y="70.2666"/><line style="stroke:#000000;stroke-width:1;" x1="0" x2="615.3491" y1="70.2666" y2="70.2666"/><line style="stroke:#000000;stroke-width:1;" x1="0" x2="615.3491" y1="73.2666" y2="73.2666"/><rect fill="#EEEEEE" height="25.291" style="stroke:#000000;stroke-width:2;" width="86.9854" x="264.1819" y="58.6211"/><text fill="#000000" font-family="sans-serif" font-size="13" font-weight="bold" lengthAdjust="spacing" textLength="69.3735" x="270.1819" y="76.6494">Join server</text><g class="message" data-participant-1="Client1" data-participant-2="Server"><polygon fill="#181818" points="206.3994,113.2031,216.3994,117.2031,206.3994,121.2031,210.3994,117.2031" style="stroke:#181818;stroke-width:1;"/><line style="stroke:#181818;stroke-width:1;" x1="48.7896" x2="212.3994" y1="117.2031" y2="117.2031"/><text fill="#000000" font-family="sans-serif" font-size="13" font-weight="bold" lengthAdjust="spacing" textLength="7.23" x="55.7896" y="111.9404">1</text><text fill="#000000" font-family="sans-serif" font-size="13" lengthAdjust="spacing" textLength="61.4009" x="67.0195" y="111.9404">JOIN Alice</text></g><g class="message" data-participant-1="Server" data-participant-2="Client1"><polygon fill="#181818" points="59.7896,144.4941,49.7896,148.4941,59.7896,152.4941,55.7896,148.4941" style="stroke:#181818;stroke-width:1;"/><line style="stroke:#181818;stroke-width:1;" x1="53.7896" x2="217.3994" y1="148.4941" y2="148.4941"/><text fill="#000000" font-family="sans-serif" font-size="13" font-weight="bold" lengthAdjust="spacing" textLength="7.23" x="65.7896" y="143.2314">2</text><text fill="#000000" font-family="sans-serif" font-size="13" lengthAdjust="spacing" textLength="18.7827" x="77.0195" y="143.2314">OK</text></g><rect fill="#EEEEEE" height="3" style="stroke:#EEEEEE;stroke-width:1;" width="615.3491" x="0" y="203.1396"/><line style="stroke:#000000;stroke-width:1;" x1="0" x2="615.3491" y1="203.1396" y2="203.1396"/><line style="stroke:#000000;stroke-width:1;" x1="0" x2="615.3491" y1="206.1396" y2="206.1396"/><rect fill="#EEEEEE" height="25.291" style="stroke:#000000;stroke-width:2;" width="291.4053" x="161.9719" y="191.4941"/><text fill="#000000" font-family="sans-serif" font-size="13" font-weight="bold" lengthAdjust="spacing" textLength="273.7935" x="167.9719" y="209.5225">New opponent joins and readies themselves</text><g class="message" data-participant-1="Client2" data-participant-2="Server"><polygon fill="#181818" points="229.3994,246.0762,219.3994,250.0762,229.3994,254.0762,225.3994,250.0762" style="stroke:#181818;stroke-width:1;"/><line style="stroke:#181818;stroke-width:1;" x1="223.3994" x2="392.0557" y1="250.0762" y2="250.0762"/><text fill="#000000" font-family="sans-serif" font-size="13" font-weight="bold" lengthAdjust="spacing" textLength="7.23" x="235.3994" y="244.8135">3</text><text fill="#000000" font-family="sans-serif" font-size="13" lengthAdjust="spacing" textLength="56.3545" x="246.6294" y="244.8135">JOIN Bob</text></g><g class="message" data-participant-1="Server" data-participant-2="Client2"><polygon fill="#181818" points="381.0557,277.3672,391.0557,281.3672,381.0557,285.3672,385.0557,281.3672" style="stroke:#181818;stroke-width:1;"/><line style="stroke:#181818;stroke-width:1;" x1="218.3994" x2="387.0557" y1="281.3672" y2="281.3672"/><text fill="#000000" font-family="sans-serif" font-size="13" font-weight="bold" lengthAdjust="spacing" textLength="7.23" x="225.3994" y="276.1045">4</text><text fill="#000000" font-family="sans-serif" font-size="13" lengthAdjust="spacing" textLength="18.7827" x="236.6294" y="276.1045">OK</text></g><g class="message" data-participant-1="Client1" data-participant-2="Server"><polygon fill="#181818" points="206.3994,308.6582,216.3994,312.6582,206.3994,316.6582,210.3994,312.6582" style="stroke:#181818;stroke-width:1;"/><line style="stroke:#181818;stroke-width:1;" x1="48.7896" x2="212.3994" y1="312.6582" y2="312.6582"/><text fill="#000000" font-family="sans-serif" font-size="13" font-weight="bold" lengthAdjust="spacing" textLength="7.23" x="55.7896" y="307.3955">5</text><text fill="#000000" font-family="sans-serif" font-size="13" lengthAdjust="spacing" textLength="44.7891" x="67.0195" y="307.3955">READY</text></g><g class="message" data-participant-1="Client2" data-participant-2="Server"><polygon fill="#181818" points="229.3994,339.9492,219.3994,343.9492,229.3994,347.9492,225.3994,343.9492" style="stroke:#181818;stroke-width:1;"/><line style="stroke:#181818;stroke-width:1;" x1="223.3994" x2="392.0557" y1="343.9492" y2="343.9492"/><text fill="#000000" font-family="sans-serif" font-size="13" font-weight="bold" lengthAdjust="spacing" textLength="7.23" x="235.3994" y="338.6865">6</text><text fill="#000000" font-family="sans-serif" font-size="13" lengthAdjust="spacing" textLength="44.7891" x="246.6294" y="338.6865">READY</text></g><rect fill="#EEEEEE" height="3" style="stroke:#EEEEEE;stroke-width:1;" width="615.3491" x="0" y="398.5947"/><line style="stroke:#000000;stroke-width:1;" x1="0" x2="615.3491" y1="398.5947" y2="398.5947"/><line style="stroke:#000000;stroke-width:1;" x1="0" x2="615.3491" y1="401.5947" y2="401.5947"/><rect fill="#EEEEEE" height="25.291" style="stroke:#000000;stroke-width:2;" width="232.9561" x="191.1965" y="386.9492"/><text fill="#000000" font-family="sans-serif" font-size="13" font-weight="bold" lengthAdjust="spacing" textLength="215.3442" x="197.1965" y="404.9775">Game starts if all players are ready</text><g class="message" data-participant-1="Server" data-participant-2="Client1"><polygon fill="#181818" points="59.7896,441.5313,49.7896,445.5313,59.7896,449.5313,55.7896,445.5313" style="stroke:#181818;stroke-width:1;"/><line style="stroke:#181818;stroke-width:1;" x1="53.7896" x2="217.3994" y1="445.5313" y2="445.5313"/><text fill="#000000" font-family="sans-serif" font-size="13" font-weight="bold" lengthAdjust="spacing" textLength="7.23" x="65.7896" y="440.2686">7</text><text fill="#000000" font-family="sans-serif" font-size="13" lengthAdjust="spacing" textLength="134.3799" x="77.0195" y="440.2686">GAME_STARTS Bob 1</text></g><g class="message" data-participant-1="Server" data-participant-2="Client2"><polygon fill="#181818" points="381.0557,472.8223,391.0557,476.8223,381.0557,480.8223,385.0557,476.8223" style="stroke:#181818;stroke-width:1;"/><line style="stroke:#181818;stroke-width:1;" x1="218.3994" x2="387.0557" y1="476.8223" y2="476.8223"/><text fill="#000000" font-family="sans-serif" font-size="13" font-weight="bold" lengthAdjust="spacing" textLength="7.23" x="225.3994" y="471.5596">8</text><text fill="#000000" font-family="sans-serif" font-size="13" lengthAdjust="spacing" textLength="139.4263" x="236.6294" y="471.5596">GAME_STARTS Alice 0</text></g><path d="M10,516.8223 L82.4346,516.8223 L82.4346,526.1133 L72.4346,536.1133 L10,536.1133 L10,516.8223" fill="#EEEEEE" style="stroke:#000000;stroke-width:1.5;"/><rect fill="none" height="202.7461" style="stroke:#000000;stroke-width:1.5;" width="595.3491" x="10" y="516.8223"/><text fill="#000000" font-family="sans-serif" font-size="13" font-weight="bold" lengthAdjust="spacing" textLength="27.4346" x="25" y="531.8506">loop</text><text fill="#000000" font-family="sans-serif" font-size="11" font-weight="bold" lengthAdjust="spacing" textLength="328.2383" x="97.4346" y="530.6924">[until one of the players win, a draw occurs or a player forfeits]</text><rect fill="#EEEEEE" height="3" style="stroke:#EEEEEE;stroke-width:1;" width="615.3491" x="0" y="557.7588"/><line style="stroke:#000000;stroke-width:1;" x1="0" x2="615.3491" y1="557.7588" y2="557.7588"/><line style="stroke:#000000;stroke-width:1;" x1="0" x2="615.3491" y1="560.7588" y2="560.7588"/><rect fill="#EEEEEE" height="25.291" style="stroke:#000000;stroke-width:2;" width="84.0781" x="265.6355" y="546.1133"/><text fill="#000000" font-family="sans-serif" font-size="13" font-weight="bold" lengthAdjust="spacing" textLength="66.4663" x="271.6355" y="564.1416">Play a turn</text><g class="message" data-participant-1="Client1" data-participant-2="Server"><polygon fill="#181818" points="206.3994,600.6953,216.3994,604.6953,206.3994,608.6953,210.3994,604.6953" style="stroke:#181818;stroke-width:1;"/><line style="stroke:#181818;stroke-width:1;" x1="48.7896" x2="212.3994" y1="604.6953" y2="604.6953"/><text fill="#000000" font-family="sans-serif" font-size="13" font-weight="bold" lengthAdjust="spacing" textLength="7.23" x="55.7896" y="599.4326">9</text><text fill="#000000" font-family="sans-serif" font-size="13" lengthAdjust="spacing" textLength="44.0845" x="67.0195" y="599.4326">PLAY 3</text></g><g class="message" data-participant-1="Server" data-participant-2="Client1"><polygon fill="#181818" points="59.7896,631.9863,49.7896,635.9863,59.7896,639.9863,55.7896,635.9863" style="stroke:#181818;stroke-width:1;"/><line style="stroke:#181818;stroke-width:1;" x1="53.7896" x2="217.3994" y1="635.9863" y2="635.9863"/><text fill="#000000" font-family="sans-serif" font-size="13" font-weight="bold" lengthAdjust="spacing" textLength="14.46" x="65.7896" y="630.7236">10</text><text fill="#000000" font-family="sans-serif" font-size="13" lengthAdjust="spacing" textLength="18.7827" x="84.2495" y="630.7236">OK</text></g><g class="message" data-participant-1="Client2" data-participant-2="Client2"><line style="stroke:#181818;stroke-width:1;" x1="393.0557" x2="435.0557" y1="667.2773" y2="667.2773"/><line style="stroke:#181818;stroke-width:1;" x1="435.0557" x2="435.0557" y1="667.2773" y2="680.2773"/><line style="stroke:#181818;stroke-width:1;" x1="394.0557" x2="435.0557" y1="680.2773" y2="680.2773"/><polygon fill="#181818" points="404.0557,676.2773,394.0557,680.2773,404.0557,684.2773,400.0557,680.2773" style="stroke:#181818;stroke-width:1;"/><text fill="#000000" font-family="sans-serif" font-size="13" font-weight="bold" lengthAdjust="spacing" textLength="14.46" x="400.0557" y="662.0146">11</text><text fill="#000000" font-family="sans-serif" font-size="13" lengthAdjust="spacing" textLength="174.8335" x="418.5156" y="662.0146">Disconnect from game (forfeit)</text></g><g class="message" data-participant-1="Server" data-participant-2="Client1"><polygon fill="#181818" points="59.7896,707.5684,49.7896,711.5684,59.7896,715.5684,55.7896,711.5684" style="stroke:#181818;stroke-width:1;"/><line style="stroke:#181818;stroke-width:1;" x1="53.7896" x2="217.3994" y1="711.5684" y2="711.5684"/><text fill="#000000" font-family="sans-serif" font-size="13" font-weight="bold" lengthAdjust="spacing" textLength="14.46" x="65.7896" y="706.3057">12</text><text fill="#000000" font-family="sans-serif" font-size="13" lengthAdjust="spacing" textLength="111.9663" x="84.2495" y="706.3057">OPPONENT_LEFT</text></g><g class="message" data-participant-1="Server" data-participant-2="Client1"><polygon fill="#181818" points="59.7896,745.8594,49.7896,749.8594,59.7896,753.8594,55.7896,749.8594" style="stroke:#181818;stroke-width:1;"/><line style="stroke:#181818;stroke-width:1;" x1="53.7896" x2="217.3994" y1="749.8594" y2="749.8594"/><text fill="#000000" font-family="sans-serif" font-size="13" font-weight="bold" lengthAdjust="spacing" textLength="14.46" x="65.7896" y="744.5967">13</text><text fill="#000000" font-family="sans-serif" font-size="13" lengthAdjust="spacing" textLength="127.1245" x="84.2495" y="744.5967">END_OF_GAME WIN</text></g><!--SRC=[TL7HQeCm57tFLzp73JPOtLl1WPksjEjKMc7qILAzRXanaIIs5FhnIrIwbheyXNDkpZdtfA7Ai88rL1Xuumo5cP3c0jkWsgEwWlenZz3MID7MErGm8RuFIya4w6uUV9yCQl3uCeXCOPaiOWWuAv3qa2E7kIaax-HqEZcb60yWcqOAIy2FbTL0HGaAQSbGW_d6MYFVs-lPnxlnUPMx6nUlSnb9jew2S3icrHD3hZcj4RInNMXW5L3EeU7qYChcKzZbExf88ylDWuyetsJ1EjkuPBQnaMoNGrrDyDHPSoaRQ8LX76md82jNmTdwmCG3K2WLjQqLHMiXgIpGyr19LI4pce0zTedKmfOrhH8kgqD72abNmHQUEtRyg_xUULSxX4mNKWWi35HArl3bEhiRGjp_AvYcIHp5MRwAPXb1KOvr6CLXdinorn9yBk9V]--></g></svg>