<svg xmlns="http://www.w3.org/2000/svg" xmlns:xlink="http://www.w3.org/1999/xlink" contentStyleType="text/css" data-diagram-type="SEQUENCE" height="1890px" preserveAspectRatio="none" style="width:492px;height:1890px;background:#FFFFFF;" version="1.1" viewBox="0 0 492 1890" width="492px" zoomAndPan="magnify"><defs/><g><rect fill="none" height="146.4258" style="stroke:#000000;stroke-width:1.5;" width="265.5166" x="20" y="132.2031"/><rect fill="none" height="428.7246" style="stroke:#000000;stroke-width:1.5;" width="465.7988" x="10" y="645.957"/><rect fill="none" height="242.2695" style="stroke:#000000;stroke-width:1.5;" width="265.5166" x="20" y="748.8301"/><rect fill="none" height="240.2988" style="stroke:#000000;stroke-width:1.5;" width="455.7988" x="20" y="1158.9727"/><rect fill="none" height="306.959" style="stroke:#000000;stroke-width:1.5;" width="455.7988" x="20" y="1483.5625"/><g><title>Client1</title><rect fill="#000000" fill-opacity="0.00000" height="1814.1914" width="8" x="54.7896" y="38.6211"/><line style="stroke:#181818;stroke-width:0.5;stroke-dasharray:5,5;" x1="58" x2="58" y1="38.6211" y2="1852.8125"/></g><g><title>Server</title><rect fill="#000000" fill-opacity="0.00000" height="1814.1914" width="8" x="243.8994" y="38.6211"/><line style="stroke:#181818;stroke-width:0.5;stroke-dasharray:5,5;" x1="247.2822" x2="247.2822" y1="38.6211" y2="1852.8125"/></g><g><title>Client2</title><rect fill="#000000" fill-opacity="0.00000" height="1814.1914" width="8" x="433.0093" y="38.6211"/><line style="stroke:#181818;stroke-width:0.5;stroke-dasharray:5,5;" x1="436.2197" x2="436.2197" y1="38.6211" y2="1852.8125"/></g><g class="participant participant-head" data-participant="Client1"><rect fill="#E2E2F0" height="32.6211" rx="2.5" ry="2.5" style="stroke:#181818;stroke-width:0.5;" width="57.5791" x="30" y="5"/><text fill="#000000" font-family="sans-serif" font-size="14" lengthAdjust="spacing" textLength="43.5791" x="37" y="27.1074">Client1</text></g><g class="participant participant-tail" data-participant="Client1"><rect fill="#E2E2F0" height="32.6211" rx="2.5" ry="2.5" style="stroke:#181818;stroke-width:0.5;" width="57.5791" x="30" y="1851.8125"/><text fill="#000000" font-family="sans-serif" font-size="14" lengthAdjust="spacing" textLength="43.5791" x="37" y="1873.9199">Client1</text></g><g class="participant participant-head" data-participant="Server"><rect fill="#E2E2F0" height="32.6211" rx="2.5" ry="2.5" style="stroke:#181818;stroke-width:0.5;" width="55.2344" x="220.2822" y="5"/><text fill="#000000" font-family="sans-serif" font-size="14" lengthAdjust="spacing" textLength="41.2344" x="227.2822" y="27.1074">Server</text></g><g class="participant participant-tail" data-participant="Server"><rect fill="#E2E2F0" height="32.6211" rx="2.5" ry="2.5" style="stroke:#181818;stroke-width:0.5;" width="55.2344" x="220.2822" y="1851.8125"/><text fill="#000000" font-family="sans-serif" font-size="14" lengthAdjust="spacing" textLength="41.2344" x="227.2822" y="1873.9199">Server</text></g><g class="participant participant-head" data-participant="Client2"><rect fill="#E2E2F0" height="32.6211" rx="2.5" ry="2.5" style="stroke:#181818;stroke-width:0.5;" width="57.5791" x="408.2197" y="5"/><text fill="#000000" font-family="sans-serif" font-size="14" lengthAdjust="spacing" textLength="43.5791" x="415.2197" y="27.1074">Client2</text></g><g class="participant participant-tail" data-participant="Client2"><rect fill="#E2E2F0" height="32.6211" rx="2.5" ry="2.5" style="stroke:#181818;stroke-width:0.5;" width="57.5791" x="408.2197" y="1851.8125"/><text fill="#000000" font-family="sans-serif" font-size="14" lengthAdjust="spacing" textLength="43.5791" x="415.2197" y="1873.9199">Client2</text></g><rect fill="#EEEEEE" height="3" style="stroke:#EEEEEE;stroke-width:1;" width="485.7988" x="0" y="70.2666"/><line style="stroke:#000000;stroke-width:1;" x1="0" x2="485.7988" y1="70.2666" y2="70.2666"/><line style="stroke:#000000;stroke-width:1;" x1="0" x2="485.7988" y1="73.2666" y2="73.2666"/><rect fill="#EEEEEE" height="25.291" style="stroke:#000000;stroke-width:2;" width="86.9854" x="199.4067" y="58.6211"/><text fill="#000000" font-family="sans-serif" font-size="13" font-weight="bold" lengthAdjust="spacing" textLength="69.3735" x="205.4067" y="76.6494">Join server</text><g class="message" data-participant-1="Client1" data-participant-2="Server"><polygon fill="#181818" points="235.8994,113.2031,245.8994,117.2031,235.8994,121.2031,239.8994,117.2031" style="stroke:#181818;stroke-width:1;"/><line style="stroke:#181818;stroke-width:1;" x1="58.7896" x2="241.8994" y1="117.2031" y2="117.2031"/><text fill="#000000" font-family="sans-serif" font-size="13" font-weight="bold" lengthAdjust="spacing" textLength="7.23" x="65.7896" y="111.9404">1</text><text fill="#000000" font-family="sans-serif" font-size="13" lengthAdjust="spacing" textLength="61.4009" x="77.0195" y="111.9404">JOIN Alice</text></g><path d="M20,132.2031 L80.1709,132.2031 L80.1709,141.4941 L70.1709,151.4941 L20,151.4941 L20,132.2031" fill="#EEEEEE" style="stroke:#000000;stroke-width:1.5;"/><rect fill="none" height="146.4258" style="stroke:#000000;stroke-width:1.5;" width="265.5166" x="20" y="132.2031"/><text fill="#000000" font-family="sans-serif" font-size="13" font-weight="bold" lengthAdjust="spacing" textLength="15.1709" x="35" y="147.2314">alt</text><text fill="#000000" font-family="sans-serif" font-size="11" font-weight="bold" lengthAdjust="spacing" textLength="86.7969" x="95.1709" y="146.0732">[successful join]</text><g class="message" data-participant-1="Server" data-participant-2="Client1"><polygon fill="#181818" points="69.7896,170.7852,59.7896,174.7852,69.7896,178.7852,65.7896,174.7852" style="stroke:#181818;stroke-width:1;"/><line style="stroke:#181818;stroke-width:1;" x1="63.7896" x2="246.8994" y1="174.7852" y2="174.7852"/><text fill="#000000" font-family="sans-serif" font-size="13" font-weight="bold" lengthAdjust="spacing" textLength="7.23" x="75.7896" y="169.5225">2</text><text fill="#000000" font-family="sans-serif" font-size="13" lengthAdjust="spacing" textLength="18.7827" x="87.0195" y="169.5225">OK</text></g><line style="stroke:#000000;stroke-width:1;stroke-dasharray:2,2;" x1="20" x2="285.5166" y1="183.7852" y2="183.7852"/><text fill="#000000" font-family="sans-serif" font-size="11" font-weight="bold" lengthAdjust="spacing" textLength="129.6099" x="25" y="195.6553">[username already used]</text><g class="message" data-participant-1="Server" data-participant-2="Client1"><polygon fill="#181818" points="69.7896,218.707,59.7896,222.707,69.7896,226.707,65.7896,222.707" style="stroke:#181818;stroke-width:1;"/><line style="stroke:#181818;stroke-width:1;" x1="63.7896" x2="246.8994" y1="222.707" y2="222.707"/><text fill="#000000" font-family="sans-serif" font-size="13" font-weight="bold" lengthAdjust="spacing" textLength="7.23" x="75.7896" y="217.4443">3</text><text fill="#000000" font-family="sans-serif" font-size="13" lengthAdjust="spacing" textLength="57.7891" x="87.0195" y="217.4443">ERROR 1</text></g><line style="stroke:#000000;stroke-width:1;stroke-dasharray:2,2;" x1="20" x2="285.5166" y1="231.707" y2="231.707"/><text fill="#000000" font-family="sans-serif" font-size="11" font-weight="bold" lengthAdjust="spacing" textLength="72.1392" x="25" y="243.5771">[server is full]</text><g class="message" data-participant-1="Server" data-participant-2="Client1"><polygon fill="#181818" points="69.7896,266.6289,59.7896,270.6289,69.7896,274.6289,65.7896,270.6289" style="stroke:#181818;stroke-width:1;"/><line style="stroke:#181818;stroke-width:1;" x1="63.7896" x2="246.8994" y1="270.6289" y2="270.6289"/><text fill="#000000" font-family="sans-serif" font-size="13" font-weight="bold" lengthAdjust="spacing" textLength="7.23" x="75.7896" y="265.3662">4</text><text fill="#000000" font-family="sans-serif" font-size="13" lengthAdjust="spacing" textLength="57.7891" x="87.0195" y="265.3662">ERROR 2</text></g><rect fill="#EEEEEE" height="3" style="stroke:#EEEEEE;stroke-width:1;" width="485.7988" x="0" y="332.2744"/><line style="stroke:#000000;stroke-width:1;" x1="0" x2="485.7988" y1="332.2744" y2="332.2744"/><line style="stroke:#000000;stroke-width:1;" x1="0" x2="485.7988" y1="335.2744" y2="335.2744"/><rect fill="#EEEEEE" height="25.291" style="stroke:#000000;stroke-width:2;" width="291.4053" x="97.1968" y="320.6289"/><text fill="#000000" font-family="sans-serif" font-size="13" font-weight="bold" lengthAdjust="spacing" textLength="273.7935" x="103.1968" y="338.6572">New opponent joins and readies themselves</text><g class="message" data-participant-1="Client2" data-participant-2="Server"><polygon fill="#181818" points="258.8994,375.2109,248.8994,379.2109,258.8994,383.2109,254.8994,379.2109" style="stroke:#181818;stroke-width:1;"/><line style="stroke:#181818;stroke-width:1;" x1="252.8994" x2="436.0093" y1="379.2109" y2="379.2109"/><text fill="#000000" font-family="sans-serif" font-size="13" font-weight="bold" lengthAdjust="spacing" textLength="7.23" x="264.8994" y="373.9482">5</text><text fill="#000000" font-family="sans-serif" font-size="13" lengthAdjust="spacing" textLength="56.3545" x="276.1294" y="373.9482">JOIN Bob</text></g><g class="message" data-participant-1="Server" data-participant-2="Client2"><polygon fill="#181818" points="425.0093,406.502,435.0093,410.502,425.0093,414.502,429.0093,410.502" style="stroke:#181818;stroke-width:1;"/><line style="stroke:#181818;stroke-width:1;" x1="247.8994" x2="431.0093" y1="410.502" y2="410.502"/><text fill="#000000" font-family="sans-serif" font-size="13" font-weight="bold" lengthAdjust="spacing" textLength="7.23" x="254.8994" y="405.2393">6</text><text fill="#000000" font-family="sans-serif" font-size="13" lengthAdjust="spacing" textLength="18.7827" x="266.1294" y="405.2393">OK</text></g><g class="message" data-participant-1="Client1" data-participant-2="Server"><polygon fill="#181818" points="235.8994,437.793,245.8994,441.793,235.8994,445.793,239.8994,441.793" style="stroke:#181818;stroke-width:1;"/><line style="stroke:#181818;stroke-width:1;" x1="58.7896" x2="241.8994" y1="441.793" y2="441.793"/><text fill="#000000" font-family="sans-serif" font-size="13" font-weight="bold" lengthAdjust="spacing" textLength="7.23" x="65.7896" y="436.5303">7</text><text fill="#000000" font-family="sans-serif" font-size="13" lengthAdjust="spacing" textLength="44.7891" x="77.0195" y="436.5303">READY</text></g><g class="message" data-participant-1="Client2" data-participant-2="Server"><polygon fill="#181818" points="258.8994,469.084,248.8994,473.084,258.8994,477.084,254.8994,473.084" style="stroke:#181818;stroke-width:1;"/><line style="stroke:#181818;stroke-width:1;" x1="252.8994" x2="436.0093" y1="473.084" y2="473.084"/><text fill="#000000" font-family="sans-serif" font-size="13" font-weight="bold" lengthAdjust="spacing" textLength="7.23" x="264.8994" y="467.8213">8</text><text fill="#000000" font-family="sans-serif" font-size="13" lengthAdjust="spacing" textLength="44.7891" x="276.1294" y="467.8213">READY</text></g><rect fill="#EEEEEE" height="3" style="stroke:#EEEEEE;stroke-width:1;" width="485.7988" x="0" y="527.7295"/><line style="stroke:#000000;stroke-width:1;" x1="0" x2="485.7988" y1="527.7295" y2="527.7295"/><line style="stroke:#000000;stroke-width:1;" x1="0" x2="485.7988" y1="530.7295" y2="530.7295"/><rect fill="#EEEEEE" height="25.291" style="stroke:#000000;stroke-width:2;" width="232.9561" x="126.4214" y="516.084"/><text fill="#000000" font-family="sans-serif" font-size="13" font-weight="bold" lengthAdjust="spacing" textLength="215.3442" x="132.4214" y="534.1123">Game starts if all players are ready</text><g class="message" data-participant-1="Server" data-participant-2="Client1"><polygon fill="#181818" points="69.7896,570.666,59.7896,574.666,69.7896,578.666,65.7896,574.666" style="stroke:#181818;stroke-width:1;"/><line style="stroke:#181818;stroke-width:1;" x1="63.7896" x2="246.8994" y1="574.666" y2="574.666"/><text fill="#000000" font-family="sans-serif" font-size="13" font-weight="bold" lengthAdjust="spacing" textLength="7.23" x="75.7896" y="569.4033">9</text><text fill="#000000" font-family="sans-serif" font-size="13" lengthAdjust="spacing" textLength="134.3799" x="87.0195" y="569.4033">GAME_STARTS Bob 1</text></g><g class="message" data-participant-1="Server" data-participant-2="Client2"><polygon fill="#181818" points="425.0093,601.957,435.0093,605.957,425.0093,609.957,429.0093,605.957" style="stroke:#181818;stroke-width:1;"/><line style="stroke:#181818;stroke-width:1;" x1="247.8994" x2="431.0093" y1="605.957" y2="605.957"/><text fill="#000000" font-family="sans-serif" font-size="13" font-weight="bold" lengthAdjust="spacing" textLength="14.46" x="254.8994" y="600.6943">10</text><text fill="#000000" font-family="sans-serif" font-size="13" lengthAdjust="spacing" textLength="139.4263" x="273.3594" y="600.6943">GAME_STARTS Alice 0</text></g><path d="M10,645.957 L82.4346,645.957 L82.4346,655.248 L72.4346,665.248 L10,665.248 L10,645.957" fill="#EEEEEE" style="stroke:#000000;stroke-width:1.5;"/><rect fill="none" height="428.7246" style="stroke:#000000;stroke-width:1.5;" width="465.7988" x="10" y="645.957"/><text fill="#000000" font-family="sans-serif" font-size="13" font-weight="bold" lengthAdjust="spacing" textLength="27.4346" x="25" y="660.9854">loop</text><text fill="#000000" font-family="sans-serif" font-size="11" font-weight="bold" lengthAdjust="spacing" textLength="240.2061" x="97.4346" y="659.8271">[until one of the players win or a draw occurs]</text><rect fill="#EEEEEE" height="3" style="stroke:#EEEEEE;stroke-width:1;" width="485.7988" x="0" y="686.8936"/><line style="stroke:#000000;stroke-width:1;" x1="0" x2="485.7988" y1="686.8936" y2="686.8936"/><line style="stroke:#000000;stroke-width:1;" x1="0" x2="485.7988" y1="689.8936" y2="689.8936"/><rect fill="#EEEEEE" height="25.291" style="stroke:#000000;stroke-width:2;" width="84.0781" x="200.8604" y="675.248"/><text fill="#000000" font-family="sans-serif" font-size="13" font-weight="bold" lengthAdjust="spacing" textLength="66.4663" x="206.8604" y="693.2764">Play a turn</text><g class="message" data-participant-1="Client1" data-participant-2="Server"><polygon fill="#181818" points="235.8994,729.8301,245.8994,733.8301,235.8994,737.8301,239.8994,733.8301" style="stroke:#181818;stroke-width:1;"/><line style="stroke:#181818;stroke-width:1;" x1="58.7896" x2="241.8994" y1="733.8301" y2="733.8301"/><text fill="#000000" font-family="sans-serif" font-size="13" font-weight="bold" lengthAdjust="spacing" textLength="14.46" x="65.7896" y="728.5674">11</text><text fill="#000000" font-family="sans-serif" font-size="13" lengthAdjust="spacing" textLength="44.0845" x="84.2495" y="728.5674">PLAY 3</text></g><path d="M20,748.8301 L80.1709,748.8301 L80.1709,758.1211 L70.1709,768.1211 L20,768.1211 L20,748.8301" fill="#EEEEEE" style="stroke:#000000;stroke-width:1.5;"/><rect fill="none" height="242.2695" style="stroke:#000000;stroke-width:1.5;" width="265.5166" x="20" y="748.8301"/><text fill="#000000" font-family="sans-serif" font-size="13" font-weight="bold" lengthAdjust="spacing" textLength="15.1709" x="35" y="763.8584">alt</text><text fill="#000000" font-family="sans-serif" font-size="11" font-weight="bold" lengthAdjust="spacing" textLength="169.3452" x="95.1709" y="762.7002">[successfully placed your piece]</text><g class="message" data-participant-1="Server" data-participant-2="Client1"><polygon fill="#181818" points="69.7896,787.4121,59.7896,791.4121,69.7896,795.4121,65.7896,791.4121" style="stroke:#181818;stroke-width:1;"/><line style="stroke:#181818;stroke-width:1;" x1="63.7896" x2="246.8994" y1="791.4121" y2="791.4121"/><text fill="#000000" font-family="sans-serif" font-size="13" font-weight="bold" lengthAdjust="spacing" textLength="14.46" x="75.7896" y="786.1494">12</text><text fill="#000000" font-family="sans-serif" font-size="13" lengthAdjust="spacing" textLength="18.7827" x="94.2495" y="786.1494">OK</text></g><line style="stroke:#000000;stroke-width:1;stroke-dasharray:2,2;" x1="20" x2="285.5166" y1="800.4121" y2="800.4121"/><text fill="#000000" font-family="sans-serif" font-size="11" font-weight="bold" lengthAdjust="spacing" textLength="75.7593" x="25" y="812.2822">[not your turn]</text><g class="message" data-participant-1="Server" data-participant-2="Client1"><polygon fill="#181818" points="69.7896,835.334,59.7896,839.334,69.7896,843.334,65.7896,839.334" style="stroke:#181818;stroke-width:1;"/><line style="stroke:#181818;stroke-width:1;" x1="63.7896" x2="246.8994" y1="839.334" y2="839.334"/><text fill="#000000" font-family="sans-serif" font-size="13" font-weight="bold" lengthAdjust="spacing" textLength="14.46" x="75.7896" y="834.0713">13</text><text fill="#000000" font-family="sans-serif" font-size="13" lengthAdjust="spacing" textLength="57.7891" x="94.2495" y="834.0713">ERROR 1</text></g><line style="stroke:#000000;stroke-width:1;stroke-dasharray:2,2;" x1="20" x2="285.5166" y1="848.334" y2="848.334"/><text fill="#000000" font-family="sans-serif" font-size="11" font-weight="bold" lengthAdjust="spacing" textLength="144.8315" x="25" y="860.2041">[column index out of range]</text><g class="message" data-participant-1="Server" data-participant-2="Client1"><polygon fill="#181818" points="69.7896,883.2559,59.7896,887.2559,69.7896,891.2559,65.7896,887.2559" style="stroke:#181818;stroke-width:1;"/><line style="stroke:#181818;stroke-width:1;" x1="63.7896" x2="246.8994" y1="887.2559" y2="887.2559"/><text fill="#000000" font-family="sans-serif" font-size="13" font-weight="bold" lengthAdjust="spacing" textLength="14.46" x="75.7896" y="881.9932">14</text><text fill="#000000" font-family="sans-serif" font-size="13" lengthAdjust="spacing" textLength="57.7891" x="94.2495" y="881.9932">ERROR 2</text></g><line style="stroke:#000000;stroke-width:1;stroke-dasharray:2,2;" x1="20" x2="285.5166" y1="896.2559" y2="896.2559"/><text fill="#000000" font-family="sans-serif" font-size="11" font-weight="bold" lengthAdjust="spacing" textLength="107.5723" x="25" y="908.126">[column already full]</text><g class="message" data-participant-1="Server" data-participant-2="Client1"><polygon fill="#181818" points="69.7896,931.1777,59.7896,935.1777,69.7896,939.1777,65.7896,935.1777" style="stroke:#181818;stroke-width:1;"/><line style="stroke:#181818;stroke-width:1;" x1="63.7896" x2="246.8994" y1="935.1777" y2="935.1777"/><text fill="#000000" font-family="sans-serif" font-size="13" font-weight="bold" lengthAdjust="spacing" textLength="14.46" x="75.7896" y="929.915">15</text><text fill="#000000" font-family="sans-serif" font-size="13" lengthAdjust="spacing" textLength="57.7891" x="94.2495" y="929.915">ERROR 3</text></g><line style="stroke:#000000;stroke-width:1;stroke-dasharray:2,2;" x1="20" x2="285.5166" y1="944.1777" y2="944.1777"/><text fill="#000000" font-family="sans-serif" font-size="11" font-weight="bold" lengthAdjust="spacing" textLength="77.6016" x="25" y="956.0479">[wrong format]</text><g class="message" data-participant-1="Server" data-participant-2="Client1"><polygon fill="#181818" points="69.7896,979.0996,59.7896,983.0996,69.7896,987.0996,65.7896,983.0996" style="stroke:#181818;stroke-width:1;"/><line style="stroke:#181818;stroke-width:1;" x1="63.7896" x2="246.8994" y1="983.0996" y2="983.0996"/><text fill="#000000" font-family="sans-serif" font-size="13" font-weight="bold" lengthAdjust="spacing" textLength="14.46" x="75.7896" y="977.8369">16</text><text fill="#000000" font-family="sans-serif" font-size="13" lengthAdjust="spacing" textLength="57.7891" x="94.2495" y="977.8369">ERROR 4</text></g><rect fill="#EEEEEE" height="3" style="stroke:#EEEEEE;stroke-width:1;" width="485.7988" x="0" y="1019.7451"/><line style="stroke:#000000;stroke-width:1;" x1="0" x2="485.7988" y1="1019.7451" y2="1019.7451"/><line style="stroke:#000000;stroke-width:1;" x1="0" x2="485.7988" y1="1022.7451" y2="1022.7451"/><rect fill="#EEEEEE" height="25.291" style="stroke:#000000;stroke-width:2;" width="349.1816" x="68.3086" y="1008.0996"/><text fill="#000000" font-family="sans-serif" font-size="13" font-weight="bold" lengthAdjust="spacing" textLength="331.5698" x="74.3086" y="1026.1279">Update grid and tells the other player that he can play</text><g class="message" data-participant-1="Server" data-participant-2="Client2"><polygon fill="#181818" points="425.0093,1062.6816,435.0093,1066.6816,425.0093,1070.6816,429.0093,1066.6816" style="stroke:#181818;stroke-width:1;"/><line style="stroke:#181818;stroke-width:1;" x1="247.8994" x2="431.0093" y1="1066.6816" y2="1066.6816"/><text fill="#000000" font-family="sans-serif" font-size="13" font-weight="bold" lengthAdjust="spacing" textLength="14.46" x="254.8994" y="1061.4189">17</text><text fill="#000000" font-family="sans-serif" font-size="13" lengthAdjust="spacing" textLength="91.7363" x="273.3594" y="1061.4189">YOUR_TURN 3</text></g><rect fill="#EEEEEE" height="3" style="stroke:#EEEEEE;stroke-width:1;" width="485.7988" x="0" y="1128.3271"/><line style="stroke:#000000;stroke-width:1;" x1="0" x2="485.7988" y1="1128.3271" y2="1128.3271"/><line style="stroke:#000000;stroke-width:1;" x1="0" x2="485.7988" y1="1131.3271" y2="1131.3271"/><rect fill="#EEEEEE" height="25.291" style="stroke:#000000;stroke-width:2;" width="133.9072" x="175.9458" y="1116.6816"/><text fill="#000000" font-family="sans-serif" font-size="13" font-weight="bold" lengthAdjust="spacing" textLength="116.2954" x="181.9458" y="1134.71">Result of the game</text><path d="M20,1158.9727 L80.1709,1158.9727 L80.1709,1168.2637 L70.1709,1178.2637 L20,1178.2637 L20,1158.9727" fill="#EEEEEE" style="stroke:#000000;stroke-width:1.5;"/><rect fill="none" height="240.2988" style="stroke:#000000;stroke-width:1.5;" width="455.7988" x="20" y="1158.9727"/><text fill="#000000" font-family="sans-serif" font-size="13" font-weight="bold" lengthAdjust="spacing" textLength="15.1709" x="35" y="1174.001">alt</text><text fill="#000000" font-family="sans-serif" font-size="11" font-weight="bold" lengthAdjust="spacing" textLength="88.0215" x="95.1709" y="1172.8428">[a draw occured]</text><g class="message" data-participant-1="Server" data-participant-2="Client1"><polygon fill="#181818" points="69.7896,1197.5547,59.7896,1201.5547,69.7896,1205.5547,65.7896,1201.5547" style="stroke:#181818;stroke-width:1;"/><line style="stroke:#181818;stroke-width:1;" x1="63.7896" x2="246.8994" y1="1201.5547" y2="1201.5547"/><text fill="#000000" font-family="sans-serif" font-size="13" font-weight="bold" lengthAdjust="spacing" textLength="14.46" x="75.7896" y="1196.292">18</text><text fill="#000000" font-family="sans-serif" font-size="13" lengthAdjust="spacing" textLength="141.5718" x="94.2495" y="1196.292">END_OF_GAME DRAW</text></g><g class="message" data-participant-1="Server" data-participant-2="Client2"><polygon fill="#181818" points="425.0093,1228.8457,435.0093,1232.8457,425.0093,1236.8457,429.0093,1232.8457" style="stroke:#181818;stroke-width:1;"/><line style="stroke:#181818;stroke-width:1;" x1="247.8994" x2="431.0093" y1="1232.8457" y2="1232.8457"/><text fill="#000000" font-family="sans-serif" font-size="13" font-weight="bold" lengthAdjust="spacing" textLength="14.46" x="254.8994" y="1227.583">19</text><text fill="#000000" font-family="sans-serif" font-size="13" lengthAdjust="spacing" textLength="141.5718" x="273.3594" y="1227.583">END_OF_GAME DRAW</text></g><line style="stroke:#000000;stroke-width:1;stroke-dasharray:2,2;" x1="20" x2="475.7988" y1="1241.8457" y2="1241.8457"/><text fill="#000000" font-family="sans-serif" font-size="11" font-weight="bold" lengthAdjust="spacing" textLength="61.123" x="25" y="1253.7158">[Alice wins]</text><g class="message" data-participant-1="Server" data-participant-2="Client1"><polygon fill="#181818" points="69.7896,1276.7676,59.7896,1280.7676,69.7896,1284.7676,65.7896,1280.7676" style="stroke:#181818;stroke-width:1;"/><line style="stroke:#181818;stroke-width:1;" x1="63.7896" x2="246.8994" y1="1280.7676" y2="1280.7676"/><text fill="#000000" font-family="sans-serif" font-size="13" font-weight="bold" lengthAdjust="spacing" textLength="14.46" x="75.7896" y="1275.5049">20</text><text fill="#000000" font-family="sans-serif" font-size="13" lengthAdjust="spacing" textLength="127.1245" x="94.2495" y="1275.5049">END_OF_GAME WIN</text></g><g class="message" data-participant-1="Server" data-participant-2="Client2"><polygon fill="#181818" points="425.0093,1308.0586,435.0093,1312.0586,425.0093,1316.0586,429.0093,1312.0586" style="stroke:#181818;stroke-width:1;"/><line style="stroke:#181818;stroke-width:1;" x1="247.8994" x2="431.0093" y1="1312.0586" y2="1312.0586"/><text fill="#000000" font-family="sans-serif" font-size="13" font-weight="bold" lengthAdjust="spacing" textLength="14.46" x="254.8994" y="1306.7959">21</text><text fill="#000000" font-family="sans-serif" font-size="13" lengthAdjust="spacing" textLength="146.6499" x="273.3594" y="1306.7959">END_OF_GAME LOOSE</text></g><line style="stroke:#000000;stroke-width:1;stroke-dasharray:2,2;" x1="20" x2="475.7988" y1="1321.0586" y2="1321.0586"/><text fill="#000000" font-family="sans-serif" font-size="11" font-weight="bold" lengthAdjust="spacing" textLength="56.2139" x="25" y="1332.9287">[Bob wins]</text><g class="message" data-participant-1="Server" data-participant-2="Client1"><polygon fill="#181818" points="69.7896,1355.9805,59.7896,1359.9805,69.7896,1363.9805,65.7896,1359.9805" style="stroke:#181818;stroke-width:1;"/><line style="stroke:#181818;stroke-width:1;" x1="63.7896" x2="246.8994" y1="1359.9805" y2="1359.9805"/><text fill="#000000" font-family="sans-serif" font-size="13" font-weight="bold" lengthAdjust="spacing" textLength="14.46" x="75.7896" y="1354.7178">22</text><text fill="#000000" font-family="sans-serif" font-size="13" lengthAdjust="spacing" textLength="146.6499" x="94.2495" y="1354.7178">END_OF_GAME LOOSE</text></g><g class="message" data-participant-1="Server" data-participant-2="Client2"><polygon fill="#181818" points="425.0093,1387.2715,435.0093,1391.2715,425.0093,1395.2715,429.0093,1391.2715" style="stroke:#181818;stroke-width:1;"/><line style="stroke:#181818;stroke-width:1;" x1="247.8994" x2="431.0093" y1="1391.2715" y2="1391.2715"/><text fill="#000000" font-family="sans-serif" font-size="13" font-weight="bold" lengthAdjust="spacing" textLength="14.46" x="254.8994" y="1386.0088">23</text><text fill="#000000" font-family="sans-serif" font-size="13" lengthAdjust="spacing" textLength="127.1245" x="273.3594" y="1386.0088">END_OF_GAME WIN</text></g><rect fill="#EEEEEE" height="3" style="stroke:#EEEEEE;stroke-width:1;" width="485.7988" x="0" y="1452.917"/><line style="stroke:#000000;stroke-width:1;" x1="0" x2="485.7988" y1="1452.917" y2="1452.917"/><line style="stroke:#000000;stroke-width:1;" x1="0" x2="485.7988" y1="1455.917" y2="1455.917"/><rect fill="#EEEEEE" height="25.291" style="stroke:#000000;stroke-width:2;" width="43.6055" x="221.0967" y="1441.2715"/><text fill="#000000" font-family="sans-serif" font-size="13" font-weight="bold" lengthAdjust="spacing" textLength="25.9937" x="227.0967" y="1459.2998">Quit</text><path d="M20,1483.5625 L80.1709,1483.5625 L80.1709,1492.8535 L70.1709,1502.8535 L20,1502.8535 L20,1483.5625" fill="#EEEEEE" style="stroke:#000000;stroke-width:1.5;"/><rect fill="none" height="306.959" style="stroke:#000000;stroke-width:1.5;" width="455.7988" x="20" y="1483.5625"/><text fill="#000000" font-family="sans-serif" font-size="13" font-weight="bold" lengthAdjust="spacing" textLength="15.1709" x="35" y="1498.5908">alt</text><text fill="#000000" font-family="sans-serif" font-size="11" font-weight="bold" lengthAdjust="spacing" textLength="266.4976" x="95.1709" y="1497.4326">[Alice closes connection after the end of the game]</text><g class="message" data-participant-1="Client1" data-participant-2="Client1"><line style="stroke:#181818;stroke-width:1;" x1="58.7896" x2="100.7896" y1="1526.1445" y2="1526.1445"/><line style="stroke:#181818;stroke-width:1;" x1="100.7896" x2="100.7896" y1="1526.1445" y2="1539.1445"/><line style="stroke:#181818;stroke-width:1;" x1="59.7896" x2="100.7896" y1="1539.1445" y2="1539.1445"/><polygon fill="#181818" points="69.7896,1535.1445,59.7896,1539.1445,69.7896,1543.1445,65.7896,1539.1445" style="stroke:#181818;stroke-width:1;"/><text fill="#000000" font-family="sans-serif" font-size="13" font-weight="bold" lengthAdjust="spacing" textLength="14.46" x="65.7896" y="1520.8818">24</text><text fill="#000000" font-family="sans-serif" font-size="13" lengthAdjust="spacing" textLength="121.4116" x="84.2495" y="1520.8818">Close the connection</text></g><g class="message" data-participant-1="Client1" data-participant-2="Server"><polygon fill="#181818" points="69.7896,1566.4355,59.7896,1570.4355,69.7896,1574.4355,65.7896,1570.4355" style="stroke:#181818;stroke-width:1;"/><polygon fill="#181818" points="235.8994,1566.4355,245.8994,1570.4355,235.8994,1574.4355,239.8994,1570.4355" style="stroke:#181818;stroke-width:1;"/><line style="stroke:#181818;stroke-width:1;stroke-dasharray:2,2;" x1="63.7896" x2="241.8994" y1="1570.4355" y2="1570.4355"/><text fill="#000000" font-family="sans-serif" font-size="13" font-weight="bold" lengthAdjust="spacing" textLength="14.46" x="75.7896" y="1565.1729">25</text><text fill="#000000" font-family="sans-serif" font-size="13" lengthAdjust="spacing" textLength="119.958" x="94.2495" y="1565.1729">Connection is closed</text></g><g class="message" data-participant-1="Server" data-participant-2="Server"><line style="stroke:#181818;stroke-width:1;" x1="247.8994" x2="289.8994" y1="1601.7266" y2="1601.7266"/><line style="stroke:#181818;stroke-width:1;" x1="289.8994" x2="289.8994" y1="1601.7266" y2="1614.7266"/><line style="stroke:#181818;stroke-width:1;" x1="248.8994" x2="289.8994" y1="1614.7266" y2="1614.7266"/><polygon fill="#181818" points="258.8994,1610.7266,248.8994,1614.7266,258.8994,1618.7266,254.8994,1614.7266" style="stroke:#181818;stroke-width:1;"/><text fill="#000000" font-family="sans-serif" font-size="13" font-weight="bold" lengthAdjust="spacing" textLength="14.46" x="254.8994" y="1596.4639">26</text><text fill="#000000" font-family="sans-serif" font-size="13" lengthAdjust="spacing" textLength="145.209" x="273.3594" y="1596.4639">Remove Alice from users</text></g><line style="stroke:#000000;stroke-width:1;stroke-dasharray:2,2;" x1="20" x2="475.7988" y1="1623.7266" y2="1623.7266"/><text fill="#000000" font-family="sans-serif" font-size="11" font-weight="bold" lengthAdjust="spacing" textLength="158.936" x="25" y="1635.5967">[Alice leaves during the game]</text><g class="message" data-participant-1="Client1" data-participant-2="Client1"><line style="stroke:#181818;stroke-width:1;" x1="58.7896" x2="100.7896" y1="1662.6484" y2="1662.6484"/><line style="stroke:#181818;stroke-width:1;" x1="100.7896" x2="100.7896" y1="1662.6484" y2="1675.6484"/><line style="stroke:#181818;stroke-width:1;" x1="59.7896" x2="100.7896" y1="1675.6484" y2="1675.6484"/><polygon fill="#181818" points="69.7896,1671.6484,59.7896,1675.6484,69.7896,1679.6484,65.7896,1675.6484" style="stroke:#181818;stroke-width:1;"/><text fill="#000000" font-family="sans-serif" font-size="13" font-weight="bold" lengthAdjust="spacing" textLength="14.46" x="65.7896" y="1657.3857">27</text><text fill="#000000" font-family="sans-serif" font-size="13" lengthAdjust="spacing" textLength="121.4116" x="84.2495" y="1657.3857">Close the connection</text></g><g class="message" data-participant-1="Client1" data-participant-2="Server"><polygon fill="#181818" points="69.7896,1702.9395,59.7896,1706.9395,69.7896,1710.9395,65.7896,1706.9395" style="stroke:#181818;stroke-width:1;"/><polygon fill="#181818" points="235.8994,1702.9395,245.8994,1706.9395,235.8994,1710.9395,239.8994,1706.9395" style="stroke:#181818;stroke-width:1;"/><line style="stroke:#181818;stroke-width:1;stroke-dasharray:2,2;" x1="63.7896" x2="241.8994" y1="1706.9395" y2="1706.9395"/><text fill="#000000" font-family="sans-serif" font-size="13" font-weight="bold" lengthAdjust="spacing" textLength="14.46" x="75.7896" y="1701.6768">28</text><text fill="#000000" font-family="sans-serif" font-size="13" lengthAdjust="spacing" textLength="119.958" x="94.2495" y="1701.6768">Connection is closed</text></g><g class="message" data-participant-1="Server" data-participant-2="Server"><line style="stroke:#181818;stroke-width:1;" x1="247.8994" x2="289.8994" y1="1738.2305" y2="1738.2305"/><line style="stroke:#181818;stroke-width:1;" x1="289.8994" x2="289.8994" y1="1738.2305" y2="1751.2305"/><line style="stroke:#181818;stroke-width:1;" x1="248.8994" x2="289.8994" y1="1751.2305" y2="1751.2305"/><polygon fill="#181818" points="258.8994,1747.2305,248.8994,1751.2305,258.8994,1755.2305,254.8994,1751.2305" style="stroke:#181818;stroke-width:1;"/><text fill="#000000" font-family="sans-serif" font-size="13" font-weight="bold" lengthAdjust="spacing" textLength="14.46" x="254.8994" y="1732.9678">29</text><text fill="#000000" font-family="sans-serif" font-size="13" lengthAdjust="spacing" textLength="145.209" x="273.3594" y="1732.9678">Remove Alice from users</text></g><g class="message" data-participant-1="Server" data-participant-2="Client2"><polygon fill="#181818" points="425.0093,1778.5215,435.0093,1782.5215,425.0093,1786.5215,429.0093,1782.5215" style="stroke:#181818;stroke-width:1;"/><line style="stroke:#181818;stroke-width:1;" x1="247.8994" x2="431.0093" y1="1782.5215" y2="1782.5215"/><text fill="#000000" font-family="sans-serif" font-size="13" font-weight="bold" lengthAdjust="spacing" textLength="14.46" x="254.8994" y="1777.2588">30</text><text fill="#000000" font-family="sans-serif" font-size="13" lengthAdjust="spacing" textLength="127.1245" x="273.3594" y="1777.2588">END_OF_GAME WIN</text></g><rect fill="#EEEEEE" height="3" style="stroke:#EEEEEE;stroke-width:1;" width="485.7988" x="0" y="1819.167"/><line style="stroke:#000000;stroke-width:1;" x1="0" x2="485.7988" y1="1819.167" y2="1819.167"/><line style="stroke:#000000;stroke-width:1;" x1="0" x2="485.7988" y1="1822.167" y2="1822.167"/><rect fill="#EEEEEE" height="25.291" style="stroke:#000000;stroke-width:2;" width="121.6309" x="182.084" y="1807.5215"/><text fill="#000000" font-family="sans-serif" font-size="13" font-weight="bold" lengthAdjust="spacing" textLength="104.019" x="188.084" y="1825.5498">End of sequence</text><!--SRC=[pLHDRnen4BtlhvW_4AaXEKMb4WKQ9KtPT0cAE277Er1NNdlh3oWIFxvZxx90M2YzTGy8ZMVUl7dpx98P9xWecNBGbmALkqxAlTWOpHBDGQXAwoG9yquhNxoXWUiawNRXKGi5DbP0jviaDI1SVQfnxk0nVHX1JmgEL2yTMCyvMZlt4dvITP80VLLoAAiHxY3zcYGeBO8dVCKA12ODidmT0ld9ic6MfLbW5sjhQi82zPD_AQ81KH7oPhE9murm1ReijQAaoDK2Kpa44W8jk1zOM9HB-hiRlNCq-cVzbhnlsQd6Qr4h6_O6qpQiwg3XTXy4iOwMP47CIHe9fMHhDCJH85H21LejqzxtlWrduvTUzZ8Ex4Yi5dxxIN5xyA7kBhKkmIid990qeET1YQRxYWoX3J383IFvEFV6Hjc9z3Fbq8dpHaLk8ToYmVDJRmetrV6XO-GwzE6Omrfx0wN0u2gelnCc2aVH34gxgYuGE5lMcAYfvLhwGe5GEVu6xLqOsp2rm0jmEiSuMollN7aMuMOFOMMqMi1ScuAv2qflwr9LNnbQmwJCcKDO6957GpkKCjePDFsOUfKKO0ueo9cAeMPbBMwPffDizZB9He7gmINAq7hfjYvP1Di6dB3NVO-Skz6ZmIpzCWk6X47MUpt5uIYlUW8gyv8jxKKTNXz6bpHuIjFniEuGxj35-5NX1Hq2aKCfltlX6l6giRZKbjuVhfL2xeGcPyrTt1s6bU_BVdJT6dhz01BpTZW7oH-lzcvdVzUBdjL887ytJ_DcOQ6NsmtCZIxYMsuF5YEHXHSqzqQGhVz3il-qAjhIi9BTuY-FYaUt_m40]--></g></svg>